<svg xmlns="http://www.w3.org/2000/svg" height="48" viewBox="0 96 960 960" width="48"><path d="M297 839q-10 0-18.1-3-8.1-3-13.9-9L84 646q-13-12-13-31.957Q71 594.087 84 580q13.8-13 31.9-12.5Q134 568 148 580l149 149 65 65-32.082 33.4q-6.775 5.8-14.847 8.7Q307 839 297 839Zm165-22q-8.571 0-17.321-3.818Q435.929 809.364 430 803L249 622q-15-14.087-14.5-33.543Q235 569 249 556q12-14 32.1-13.5T315 557l147 147 351-349q12-13 31.1-13t32.9 13q14 13.848 13.5 32.924T878 419L494 803q-6 6-14.727 10-8.728 4-17.273 4Zm2-171-63-65 227-228q13-13 31.957-13 18.956 0 33.043 13 13 13.8 13 32.9 0 19.1-13 31.1L464 646Z"/></svg>